<svg width="64" height="74" viewBox="0 0 64 74" fill="none" xmlns="http://www.w3.org/2000/svg">
<path d="M21.8153 4.36722C27.1177 -1.54255 35.0572 -1.25635 40.0885 4.4568C42.19 1.94651 44.8531 0.421545 48.1061 0.0938311C50.5177 -0.148677 52.7948 0.380035 54.9049 1.59476C59.0492 3.98052 61.4565 8.88968 60.6822 13.3597C59.7302 18.8565 56.1541 22.3675 50.2683 23.4445C50.2401 24.0038 50.1815 24.6025 50.1794 25.2033C50.1729 34.7616 50.1772 44.3221 50.175 53.8804C50.175 56.2727 50.0904 56.3623 47.7982 56.3623C36.508 56.3645 25.2201 56.3645 13.93 56.3623C11.8155 56.3623 11.6767 56.2203 11.6767 54.0683C11.6724 44.51 11.6745 34.9495 11.6745 25.3912C11.6745 24.7794 11.6745 24.1699 11.6745 23.4729C8.36948 22.9442 5.62827 21.6028 3.58538 19.0073C2.11068 17.1306 1.27791 14.9895 1.08924 12.6234C0.714057 7.95241 3.29478 3.41904 7.45647 1.30637C12.2536 -1.12745 16.6582 -0.190188 21.8153 4.36722Z" fill="#2E2E2E"/>
<path d="M61.8424 73.6394C61.0573 73.9977 60.2246 73.9737 59.3875 73.9715C56.3925 73.9628 53.3932 73.8754 50.4048 73.9955C47.7981 74.1026 44.5711 71.4197 44.7272 68.3173C44.7424 67.9918 44.7597 67.6663 44.7771 67.3124C44.5494 67.3036 44.3932 67.2927 44.2371 67.2927C36.5643 67.2905 28.8894 67.2905 21.2166 67.2774C20.8154 67.2774 20.6159 67.3582 20.4402 67.7733C19.8959 69.0602 18.8614 69.72 17.4822 69.7811C16.5778 69.8205 15.6713 69.7899 14.832 69.7921C14.832 67.568 14.8342 65.3592 14.8342 63.0259C15.9359 63.0892 17.1677 63.0564 18.3605 63.2618C19.421 63.4453 20.1301 64.2297 20.5118 65.2565C20.5964 65.4859 20.6853 65.5951 20.9499 65.5951C28.833 65.5864 36.7183 65.5842 44.6014 65.5798C44.6318 65.5798 44.6622 65.5645 44.7879 65.534C44.7684 65.2325 44.7294 64.9091 44.725 64.5836C44.7012 62.6763 45.5275 61.2256 47.0173 60.0786C48.1103 59.2375 49.2944 58.8814 50.6672 58.901C53.6773 58.9447 56.6896 58.9207 59.6997 58.9032C60.4675 58.8988 61.2135 58.936 61.9075 59.3074C62.1373 59.539 62.365 59.7684 62.5949 60C62.9636 60.6991 63.0005 61.4506 62.9961 62.2219C62.981 64.9266 62.9853 67.6313 62.994 70.3361C62.9961 71.1772 63.0178 72.0161 62.6643 72.8048C62.3932 73.0867 62.1178 73.3641 61.8424 73.6394ZM49.2402 70.4584C49.4094 70.4912 49.7 70.6004 49.9906 70.6004C52.8532 70.6135 55.7137 70.6092 58.5764 70.607C58.7217 70.607 58.8691 70.6004 59.0079 70.5633C59.394 70.4628 59.6238 70.205 59.6325 69.8008C59.6412 69.3726 59.407 69.0973 58.9993 68.9946C58.8453 68.9553 58.6783 68.9575 58.5178 68.9575C55.6877 68.9575 52.8576 68.9597 50.0296 68.964C49.854 68.964 49.6696 68.9684 49.5026 69.0143C48.9214 69.1803 48.7241 69.9122 49.2402 70.4584ZM59.5089 63.7228C59.5393 63.3907 59.6434 63.0805 59.5718 62.8205C59.4612 62.4207 59.099 62.2765 58.6913 62.2765C55.7484 62.2765 52.8055 62.2699 49.8626 62.2787C49.2771 62.2808 48.9193 62.6151 48.9149 63.1001C48.9106 63.5786 49.2814 63.915 49.8605 63.915C52.8034 63.9238 55.7463 63.926 58.6891 63.9172C58.932 63.915 59.1728 63.8058 59.5089 63.7228ZM49.2489 67.1245C49.4159 67.155 49.7087 67.2512 49.9993 67.2534C52.8793 67.2643 55.7614 67.2599 58.6414 67.2599C58.7716 67.2599 58.9017 67.2621 59.0296 67.2424C59.4547 67.1703 59.6802 66.8994 59.7106 66.4778C59.7409 66.0583 59.4677 65.7197 59.047 65.6476C58.8887 65.6192 58.7238 65.6279 58.5634 65.6279C55.7311 65.6257 52.8988 65.6257 50.0665 65.6279C49.8887 65.6279 49.7065 65.6235 49.5352 65.665C48.9301 65.8092 48.7111 66.5739 49.2489 67.1245Z" fill="white"/>
<path d="M6.52611 63.0805C6.52395 65.3308 6.52178 67.5396 6.51961 69.8292C5.27262 69.7942 3.95623 69.8663 2.67021 69.6981C1.0437 69.484 -0.0840063 67.9175 0.00490932 66.2571C0.0916563 64.6207 1.36033 63.2793 2.98467 63.1154C3.24057 63.0892 3.50081 63.0914 3.75889 63.0914C4.69358 63.0827 5.62828 63.0827 6.52611 63.0805Z" fill="white"/>
<path d="M8.34131 63.122C9.86372 63.122 11.4317 63.1242 12.9476 63.1242C12.9476 65.3155 12.9476 67.5243 12.9476 69.6806C11.4555 69.6806 9.88107 69.6784 8.34999 69.6784C8.34565 67.568 8.34348 65.3592 8.34131 63.122Z" fill="white"/>
<path d="M62.5995 60.0043C62.3696 59.7727 62.1419 59.5433 61.912 59.3118C61.218 58.9403 60.472 58.9032 59.7043 58.9076C56.6942 58.9251 53.6819 58.9491 50.6717 58.9054C49.299 58.8857 48.1149 59.2418 47.0219 60.083C45.532 61.23 44.7057 62.6807 44.7296 64.588C44.7339 64.9135 44.7708 65.2368 44.7925 65.5383C44.6667 65.5711 44.6363 65.5842 44.606 65.5842C40.0517 65.5864 35.4975 65.5886 30.9433 65.5908V67.2905C35.3761 67.2927 39.8089 67.2949 44.2416 67.2949C44.3978 67.2949 44.5517 67.3058 44.7816 67.3145C44.7643 67.6685 44.7469 67.994 44.7317 68.3195C44.5778 71.4219 47.8048 74.1026 50.4093 73.9977C53.3999 73.8754 56.397 73.9649 59.392 73.9737C60.2269 73.9759 61.0619 73.9999 61.8469 73.6416C62.1223 73.3641 62.3956 73.0889 62.671 72.8114C63.0245 72.0205 63.0028 71.1837 63.0007 70.3426C62.992 67.6379 62.9877 64.9331 63.0028 62.2284C63.005 61.455 62.966 60.7034 62.5995 60.0043ZM49.8628 62.2787C52.8057 62.2721 55.7486 62.2765 58.6915 62.2765C59.0992 62.2765 59.4614 62.4229 59.572 62.8205C59.6436 63.0805 59.5395 63.3907 59.5091 63.7228C59.1708 63.8058 58.9301 63.915 58.6893 63.9172C55.7464 63.926 52.8036 63.9238 49.8607 63.915C49.2816 63.9129 48.9108 63.5764 48.9151 63.1001C48.9195 62.6129 49.2795 62.2787 49.8628 62.2787ZM59.0081 70.5655C58.8693 70.6004 58.7197 70.6092 58.5766 70.6092C55.7139 70.6113 52.8534 70.6157 49.9908 70.6026C49.7002 70.6004 49.4096 70.4934 49.2404 70.4606C48.7243 69.9144 48.9216 69.1825 49.5028 69.0186C49.6698 68.9706 49.8542 68.9684 50.0298 68.9684C52.8599 68.964 55.6901 68.9618 58.518 68.9618C58.6785 68.9618 58.8455 68.9597 58.9995 68.999C59.4072 69.1017 59.6414 69.377 59.6327 69.8052C59.624 70.205 59.3942 70.465 59.0081 70.5655ZM59.0276 67.2402C58.9019 67.2621 58.7696 67.2577 58.6395 67.2577C55.7595 67.2577 52.8773 67.2621 49.9973 67.2512C49.7045 67.249 49.4139 67.1529 49.2469 67.1223C48.7091 66.5717 48.9303 65.8049 49.5354 65.6585C49.7045 65.617 49.8889 65.6213 50.0667 65.6213C52.899 65.6192 55.7313 65.6192 58.5636 65.6213C58.724 65.6213 58.8889 65.6148 59.0472 65.641C59.4679 65.7131 59.7411 66.0517 59.7108 66.4712C59.6804 66.8994 59.4549 67.1703 59.0276 67.2402Z" fill="#2E2E2E"/>
<path d="M40.2468 4.27984C40.1948 4.34101 40.1406 4.39782 40.0907 4.45899C35.0594 -1.25416 27.1198 -1.54036 21.8174 4.36941C16.6582 -0.19018 12.2536 -1.12744 7.45647 1.30638C3.29478 3.41904 0.714057 7.95242 1.08924 12.6234C1.27791 14.9895 2.11068 17.1306 3.58755 19.0073C5.62827 21.6028 8.36948 22.9442 11.6767 23.473C11.6767 24.1677 11.6767 24.7794 11.6767 25.3912C11.6767 34.9495 11.6745 44.51 11.6789 54.0683C11.6789 56.2225 11.8177 56.3623 13.9321 56.3623C17.8769 56.3645 21.8239 56.3623 25.7688 56.3623L40.2468 4.27984Z" fill="white"/>
</svg>
